<svg xmlns="http://www.w3.org/2000/svg" viewBox="0 0 40.57 40.57"><defs><style>.cls-1{fill:#fff;}.cls-2{fill:#005099;}.cls-3{fill:#0847a6;}</style></defs><g id="Layer_2" data-name="Layer 2"><g id="Layer_1-2" data-name="Layer 1"><circle class="cls-1" cx="20.29" cy="20.29" r="20.29"/><path class="cls-2" d="M14.79,27.3a4.8,4.8,0,0,1-4.12-1.87,8.3,8.3,0,0,1-1.36-5,8.29,8.29,0,0,1,1.36-5,4.8,4.8,0,0,1,4.12-1.87,4.78,4.78,0,0,1,4.12,1.87,8.29,8.29,0,0,1,1.37,5,8.3,8.3,0,0,1-1.37,5A4.78,4.78,0,0,1,14.79,27.3ZM12.84,17.24a7,7,0,0,0-.63,3.2,7,7,0,0,0,.63,3.21,2.18,2.18,0,0,0,3.91,0,7,7,0,0,0,.62-3.21,7,7,0,0,0-.62-3.2,2.18,2.18,0,0,0-3.91,0Z"/><path class="cls-3" d="M28.71,19a2.39,2.39,0,0,0,.5-1.38,1.53,1.53,0,0,0-.43-1.11A1.5,1.5,0,0,0,27.66,16c-.84,0-1.63.6-2.37,1.79l-2.38-1.41a7.32,7.32,0,0,1,2-2.18,5,5,0,0,1,2.83-.74,4.54,4.54,0,0,1,3,1.09,3.67,3.67,0,0,1,1.3,3,4,4,0,0,1-.52,2,13.21,13.21,0,0,1-1.93,2.4l-2.39,2.48H32.5v2.66H23.14v-2.2l3.89-4A15.77,15.77,0,0,0,28.71,19Z"/></g></g></svg>