<svg xmlns="http://www.w3.org/2000/svg" viewBox="0 0 40.57 40.57"><defs><style>.cls-1{fill:#fff;}.cls-2{fill:#005099;}.cls-3{fill:#0847a6;}</style></defs><g id="Layer_2" data-name="Layer 2"><g id="Layer_1-2" data-name="Layer 1"><circle class="cls-1" cx="20.29" cy="20.29" r="20.29"/><path class="cls-2" d="M14.79,27.3a4.8,4.8,0,0,1-4.12-1.87,8.3,8.3,0,0,1-1.36-5,8.29,8.29,0,0,1,1.36-5,4.8,4.8,0,0,1,4.12-1.87,4.78,4.78,0,0,1,4.12,1.87,8.29,8.29,0,0,1,1.37,5,8.3,8.3,0,0,1-1.37,5A4.78,4.78,0,0,1,14.79,27.3ZM12.84,17.24a7,7,0,0,0-.63,3.2,7,7,0,0,0,.63,3.21,2.18,2.18,0,0,0,3.91,0,7,7,0,0,0,.62-3.21,7,7,0,0,0-.62-3.2,2.18,2.18,0,0,0-3.91,0Z"/><path class="cls-3" d="M22.2,16.38V13.86h8.13v2.05L27.61,19a3.91,3.91,0,0,1,2.47,1.34A3.83,3.83,0,0,1,31,22.82a4,4,0,0,1-1.41,3.27,5.44,5.44,0,0,1-3.62,1.19,7.84,7.84,0,0,1-4.46-1.56l1.22-2.35A6,6,0,0,0,26,24.7a2.4,2.4,0,0,0,1.47-.44A1.5,1.5,0,0,0,28.09,23a1.55,1.55,0,0,0-.67-1.31,3.09,3.09,0,0,0-1.84-.48,6.37,6.37,0,0,0-1.77.36V19.38l2.55-3Z"/></g></g></svg>