<svg xmlns="http://www.w3.org/2000/svg" xmlns:xlink="http://www.w3.org/1999/xlink" viewBox="0 0 70.49 62.29"><defs><style>.cls-1{isolation:isolate;}.cls-2{fill:url(#linear-gradient);}.cls-3{mix-blend-mode:multiply;fill:url(#radial-gradient);}.cls-4{fill:#fff;}.cls-5{fill:#005099;}.cls-6{fill:#0847a6;}</style><linearGradient id="linear-gradient" x1="27.13" y1="31.15" x2="68.49" y2="31.15" gradientUnits="userSpaceOnUse"><stop offset="0" stop-color="#003575"/><stop offset="1" stop-color="#007dd4"/></linearGradient><radialGradient id="radial-gradient" cx="23.28" cy="33.73" r="23.28" gradientTransform="translate(30.67 -6.58) rotate(45)" gradientUnits="userSpaceOnUse"><stop offset="0.47" stop-color="#404040"/><stop offset="0.54" stop-color="#6d6d6d"/><stop offset="0.62" stop-color="#999"/><stop offset="0.69" stop-color="#bebebe"/><stop offset="0.77" stop-color="#dadada"/><stop offset="0.85" stop-color="#efefef"/><stop offset="0.92" stop-color="#fbfbfb"/><stop offset="1" stop-color="#fff"/></radialGradient></defs><g class="cls-1"><g id="Layer_2" data-name="Layer 2"><g id="Layer_1-2" data-name="Layer 1"><polygon class="cls-2" points="70.49 31.14 26.5 0 26.5 62.29 70.49 31.14"/><circle class="cls-3" cx="23.28" cy="33.73" r="23.28" transform="translate(-17.03 26.34) rotate(-45)"/><circle class="cls-4" cx="26.15" cy="30.86" r="20.29"/><path class="cls-5" d="M20.66,37.87A4.77,4.77,0,0,1,16.54,36a8.29,8.29,0,0,1-1.36-5,8.27,8.27,0,0,1,1.36-5,4.77,4.77,0,0,1,4.12-1.87A4.76,4.76,0,0,1,24.78,26a8.27,8.27,0,0,1,1.37,5,8.29,8.29,0,0,1-1.37,5A4.76,4.76,0,0,1,20.66,37.87ZM18.71,27.81A7,7,0,0,0,18.08,31a7,7,0,0,0,.63,3.21,2.18,2.18,0,0,0,3.91,0A7,7,0,0,0,23.24,31a7,7,0,0,0-.62-3.21,2.18,2.18,0,0,0-3.91,0Z"/><path class="cls-6" d="M28.07,27V24.44h8.12v2l-2.71,3.1A3.87,3.87,0,0,1,36,30.92a3.8,3.8,0,0,1,.87,2.47,4,4,0,0,1-1.41,3.28,5.46,5.46,0,0,1-3.62,1.19,7.84,7.84,0,0,1-4.46-1.56L28.55,34a6.06,6.06,0,0,0,3.35,1.32,2.4,2.4,0,0,0,1.48-.43A1.5,1.5,0,0,0,34,33.57a1.52,1.52,0,0,0-.66-1.3,3,3,0,0,0-1.84-.49,6.37,6.37,0,0,0-1.77.36V30l2.55-3Z"/></g></g></g></svg>