<svg xmlns="http://www.w3.org/2000/svg" viewBox="0 0 40.57 40.57"><defs><style>.cls-1{fill:#fff;}.cls-2{fill:#005099;}.cls-3{fill:#0847a6;}</style></defs><g id="Layer_2" data-name="Layer 2"><g id="Layer_1-2" data-name="Layer 1"><circle class="cls-1" cx="20.29" cy="20.29" r="20.29"/><path class="cls-2" d="M14.79,27.3a4.8,4.8,0,0,1-4.12-1.87,8.3,8.3,0,0,1-1.36-5,8.29,8.29,0,0,1,1.36-5,4.8,4.8,0,0,1,4.12-1.87,4.78,4.78,0,0,1,4.12,1.87,8.29,8.29,0,0,1,1.37,5,8.3,8.3,0,0,1-1.37,5A4.78,4.78,0,0,1,14.79,27.3ZM12.84,17.24a7,7,0,0,0-.63,3.2,7,7,0,0,0,.63,3.21,2.18,2.18,0,0,0,3.91,0,7,7,0,0,0,.62-3.21,7,7,0,0,0-.62-3.2,2.18,2.18,0,0,0-3.91,0Z"/><path class="cls-3" d="M27,21.16V18.85h2.84v2.31h1.5v2.57h-1.5V26.9H27V23.73H21.67V21.47l4.73-7.84h3.23l-4.5,7.53Z"/></g></g></svg>