<svg xmlns="http://www.w3.org/2000/svg" viewBox="0 0 40.57 40.57"><defs><style>.cls-1{fill:#fff;}.cls-2{fill:#005099;}.cls-3{fill:#0847a6;}</style></defs><g id="Layer_2" data-name="Layer 2"><g id="Layer_1-2" data-name="Layer 1"><circle class="cls-1" cx="20.29" cy="20.29" r="20.29"/><path class="cls-2" d="M14.79,27.3a4.8,4.8,0,0,1-4.12-1.87,8.3,8.3,0,0,1-1.36-5,8.29,8.29,0,0,1,1.36-5,4.8,4.8,0,0,1,4.12-1.87,4.78,4.78,0,0,1,4.12,1.87,8.29,8.29,0,0,1,1.37,5,8.3,8.3,0,0,1-1.37,5A4.78,4.78,0,0,1,14.79,27.3ZM12.84,17.24a7,7,0,0,0-.63,3.2,7,7,0,0,0,.63,3.21,2.18,2.18,0,0,0,3.91,0,7,7,0,0,0,.62-3.21,7,7,0,0,0-.62-3.2,2.18,2.18,0,0,0-3.91,0Z"/><path class="cls-3" d="M29.7,13.73V16.3H24.46v2.22a4.71,4.71,0,0,1,1.35-.17,5,5,0,0,1,3.3,1.15,3.87,3.87,0,0,1,1.39,3.13,4.16,4.16,0,0,1-1.43,3.24,5.11,5.11,0,0,1-3.54,1.28,5.8,5.8,0,0,1-4.5-2L22.58,23l.46.41a6,6,0,0,0,1,.66,3.25,3.25,0,0,0,1.52.41A2.1,2.1,0,0,0,27,24a1.81,1.81,0,0,0-.05-2.72,2.58,2.58,0,0,0-1.64-.49,5,5,0,0,0-2.33.72l-1.24-1.32V13.73Z"/></g></g></svg>