<svg xmlns="http://www.w3.org/2000/svg" viewBox="0 0 40.57 40.57"><defs><style>.cls-1{fill:#fff;}.cls-2{fill:#005099;}.cls-3{fill:#0847a6;}</style></defs><g id="Layer_2" data-name="Layer 2"><g id="Layer_1-2" data-name="Layer 1"><circle class="cls-1" cx="20.29" cy="20.29" r="20.29"/><path class="cls-2" d="M14.79,27.3a4.8,4.8,0,0,1-4.12-1.87,8.3,8.3,0,0,1-1.36-5,8.29,8.29,0,0,1,1.36-5,4.8,4.8,0,0,1,4.12-1.87,4.78,4.78,0,0,1,4.12,1.87,8.29,8.29,0,0,1,1.37,5,8.3,8.3,0,0,1-1.37,5A4.78,4.78,0,0,1,14.79,27.3ZM12.84,17.24a7,7,0,0,0-.63,3.2,7,7,0,0,0,.63,3.21,2.18,2.18,0,0,0,3.91,0,7,7,0,0,0,.62-3.21,7,7,0,0,0-.62-3.2,2.18,2.18,0,0,0-3.91,0Z"/><path class="cls-3" d="M27.39,16a2.33,2.33,0,0,0-1.91.82A4.17,4.17,0,0,0,24.66,19a4.74,4.74,0,0,1,2.62-.8,4.26,4.26,0,0,1,3.1,1.22,4.32,4.32,0,0,1,1.24,3.24,4.13,4.13,0,0,1-1.34,3.23,4.81,4.81,0,0,1-3.36,1.22,5.2,5.2,0,0,1-2.44-.54,4,4,0,0,1-1.61-1.51,8.93,8.93,0,0,1-1.14-4.71,10.34,10.34,0,0,1,.45-3.2A5.44,5.44,0,0,1,23.4,15a5,5,0,0,1,3.76-1.6,5.87,5.87,0,0,1,1.78.28,6.11,6.11,0,0,1,1.3.56,10.94,10.94,0,0,1,1,.72l-1.4,2.09-.33-.31a4.7,4.7,0,0,0-.87-.49A3,3,0,0,0,27.39,16ZM27,20.75a2.16,2.16,0,0,0-1.48.52,1.72,1.72,0,0,0-.6,1.36,2,2,0,0,0,.57,1.43,1.89,1.89,0,0,0,1.43.6,2,2,0,0,0,1.42-.53,1.79,1.79,0,0,0,.57-1.38,2.08,2.08,0,0,0-.51-1.42A1.78,1.78,0,0,0,27,20.75Z"/></g></g></svg>