<svg xmlns="http://www.w3.org/2000/svg" viewBox="0 0 500 372.61"><defs><style>.cls-1{fill:#ebebeb;}.cls-2{fill:#f0f0f0;}.cls-3{fill:#f5f5f5;}.cls-4{fill:#e6e6e6;}.cls-13,.cls-22,.cls-5,.cls-9{fill:#fff;}.cls-6{fill:#e0e0e0;}.cls-7{fill:#fafafa;}.cls-11,.cls-12,.cls-15,.cls-8{fill:#407bff;}.cls-14,.cls-9{opacity:0.3;}.cls-10{fill:#263238;}.cls-11,.cls-13{opacity:0.4;}.cls-12{opacity:0.1;}.cls-15{opacity:0.6;}.cls-16{fill:#ff5652;}.cls-17{fill:#ff8b7b;}.cls-18,.cls-20{opacity:0.2;}.cls-19{fill:#3052ae;}.cls-21{fill:#a5b2d3;opacity:0.5;}.cls-22{opacity:0.7;}</style></defs><g id="Layer_2" data-name="Layer 2"><g id="Character"><rect class="cls-1" y="327.45" width="500" height="0.25"/><path class="cls-1" d="M237,282.85H43.91a5.71,5.71,0,0,1-5.7-5.71V5.71A5.71,5.71,0,0,1,43.91,0H237a5.71,5.71,0,0,1,5.71,5.71V277.14A5.71,5.71,0,0,1,237,282.85ZM43.91.25a5.46,5.46,0,0,0-5.45,5.46V277.14a5.46,5.46,0,0,0,5.45,5.46H237a5.47,5.47,0,0,0,5.46-5.46V5.71A5.47,5.47,0,0,0,237,.25Z"/><path class="cls-1" d="M453.31,282.85H260.21a5.72,5.72,0,0,1-5.71-5.71V5.71A5.72,5.72,0,0,1,260.21,0h193.1A5.71,5.71,0,0,1,459,5.71V277.14A5.71,5.71,0,0,1,453.31,282.85ZM260.21.25a5.47,5.47,0,0,0-5.46,5.46V277.14a5.47,5.47,0,0,0,5.46,5.46h193.1a5.47,5.47,0,0,0,5.46-5.46V5.71A5.47,5.47,0,0,0,453.31.25Z"/><rect class="cls-1" x="174.44" y="336.97" width="26" height="0.25"/><rect class="cls-1" x="52.46" y="334.26" width="54.1" height="0.25"/><rect class="cls-1" x="147.12" y="346.26" width="26.32" height="0.25"/><rect class="cls-1" x="258.23" y="344.58" width="38.83" height="0.25"/><rect class="cls-1" x="305.96" y="344.58" width="10.69" height="0.25"/><rect class="cls-1" x="395.35" y="340.35" width="54.56" height="0.25"/><rect class="cls-2" x="381.06" y="193.1" width="45.65" height="125.47" transform="translate(807.77 511.67) rotate(180)"/><rect class="cls-2" x="181.74" y="318.57" width="236.21" height="8.87" transform="translate(599.68 646.02) rotate(180)"/><rect class="cls-3" x="172.97" y="193.1" width="208.09" height="125.47"/><rect class="cls-2" x="172.97" y="201.59" width="208.89" height="45.93"/><rect class="cls-2" x="172.97" y="255.89" width="208.89" height="45.93"/><rect class="cls-4" x="381.06" y="201.59" width="7.9" height="45.93" transform="translate(770.02 449.11) rotate(180)"/><rect class="cls-4" x="381.06" y="255.89" width="7.9" height="45.93" transform="translate(770.02 557.72) rotate(180)"/><rect class="cls-2" x="166.89" y="185.38" width="214.17" height="7.72" transform="translate(547.95 378.48) rotate(180)"/><rect class="cls-4" x="381.06" y="185.38" width="52.03" height="7.72"/><rect class="cls-2" x="328.14" y="26.73" width="107.43" height="135.04" transform="translate(763.72 188.51) rotate(180)"/><rect class="cls-3" x="304.43" y="26.73" width="127.03" height="135.04" transform="translate(735.89 188.51) rotate(180)"/><rect class="cls-5" x="311.06" y="41.38" width="113.76" height="105.75" transform="translate(273.69 462.2) rotate(-90)"/><path class="cls-4" d="M379.65,106.57l20.21-9.37V91.3l-20.21-9.38v7l12.28,5.29-12.28,5.3Z"/><path class="cls-4" d="M366.47,79.2h-3.69l6.54,30.11H373Z"/><path class="cls-4" d="M356.23,99.56,344,94.26,356.23,89v-7L336,91.3v5.9l20.21,9.37Z"/><rect class="cls-2" x="117.21" y="98.27" width="7.04" height="229.18" transform="translate(241.47 425.72) rotate(180)"/><path class="cls-2" d="M115.75,325.85l-.19-1a5.62,5.62,0,0,0,3.33-2.91c1.83-3.25,2.94-10.15-2.15-24.64-7.84-22.31-3.16-40.32,6.17-76.19,1.62-6.25,3.46-13.33,5.37-21,7.17-28.67.54-46.45-4.79-60.74-4.13-11.09-7.4-19.85-3.22-30l.93.38c-4,9.79-.83,18.39,3.23,29.27,5.38,14.42,12.07,32.36,4.82,61.33-1.91,7.65-3.75,14.74-5.37,21C114.6,257.06,109.94,275,117.69,297c5.23,14.9,4,22.09,2,25.51A6.48,6.48,0,0,1,115.75,325.85Z"/><polygon class="cls-2" points="107.99 327.45 133.48 327.45 126.39 323.27 115.08 323.27 107.99 327.45"/><polygon class="cls-3" points="70.31 127.45 171.16 127.45 160.06 42.71 81.41 42.71 70.31 127.45"/><polygon class="cls-2" points="219.88 141.42 273.72 141.42 266.63 185.38 226.97 185.38 219.88 141.42"/><path class="cls-6" d="M241.51,155.73c14.68-5.32,25.92-13.3,13.34-29.44s-32.07-16.07-45.21-8.93c-16.74,9.11-13.38,35.45-13.38,35.45S226.83,161,241.51,155.73Z"/><path class="cls-4" d="M255.78,141c-11.23-7.65-19.19-16.51-6.16-25.84s29.1-4.55,38.76,4.12c12.31,11.06,5.2,30.47,5.2,30.47S267,148.66,255.78,141Z"/><path class="cls-2" d="M236,121.64c13.14-.8,24.16-4.22,17.94-18.46S232,85,219.64,87.41c-15.73,3.1-19.44,22.78-19.44,22.78S222.87,122.44,236,121.64Z"/><path class="cls-1" d="M252.5,113.24c-10.93-3.51-19.5-8.79-11.17-19.47s22.5-10.64,32.4-5.91c12.62,6,11.5,23.45,11.5,23.45S263.43,116.76,252.5,113.24Z"/><path class="cls-3" d="M232,95c10.91,3.6,20.94,4.38,20.49-9.16S240.58,64,229.8,62c-13.75-2.56-23.11,12.19-23.11,12.19S221.11,91.42,232,95Z"/><path class="cls-7" d="M259.69,89.2c-7.81.53-14.56-.65-12-9.51s11.56-12.41,19-11.91c9.5.63,13.19,12,13.19,12S267.49,88.67,259.69,89.2Z"/><ellipse id="_Path_" data-name="&lt;Path&gt;" class="cls-3" cx="250" cy="361.29" rx="193.89" ry="11.32"/><rect class="cls-8" x="79.51" y="196.13" width="339.75" height="12.19"/><rect class="cls-9" x="79.51" y="196.13" width="90.93" height="12.19"/><polygon class="cls-8" points="171.89 208.32 163.98 208.32 168.12 361.1 171.89 361.1 175.66 361.1 179.81 208.32 171.89 208.32"/><polygon class="cls-9" points="168.12 361.1 171.89 361.1 171.89 211.61 164.11 213.03 168.12 361.1"/><polygon class="cls-8" points="96.92 208.32 89.01 208.32 93.15 361.1 96.92 361.1 100.69 361.1 104.83 208.32 96.92 208.32"/><polygon class="cls-9" points="93.15 361.1 96.92 361.1 96.92 211.61 89.13 213.03 93.15 361.1"/><polygon class="cls-8" points="401.85 208.32 393.94 208.32 398.08 361.1 401.85 361.1 405.62 361.1 409.77 208.32 401.85 208.32"/><polygon class="cls-9" points="398.08 361.1 401.85 361.1 401.85 211.61 394.07 213.03 398.08 361.1"/><polygon class="cls-8" points="326.88 208.32 318.97 208.32 323.11 361.1 326.88 361.1 330.65 361.1 334.79 208.32 326.88 208.32"/><polygon class="cls-9" points="323.11 361.1 326.88 361.1 326.88 211.61 319.1 213.03 323.11 361.1"/><path class="cls-10" d="M240.78,130.88H160a4.16,4.16,0,0,0-4.17,5.27l10.76,51.35a6.88,6.88,0,0,0,6.38,5.28h80.84a4.17,4.17,0,0,0,4.17-5.28l-10.77-51.35A6.87,6.87,0,0,0,240.78,130.88Z"/><path class="cls-5" d="M173.67,189.85a4.79,4.79,0,0,1-4.32-3.6L158.59,134.9a2.35,2.35,0,0,1,.37-2,2.17,2.17,0,0,1,1.73-.73h80.84a4.79,4.79,0,0,1,4.32,3.6l10.76,51.34a2.37,2.37,0,0,1-.37,2,2.14,2.14,0,0,1-1.73.73Z"/><path class="cls-11" d="M234.66,185.74l-10.2-48.65a2,2,0,0,1,1.94-2.39h13.12a2,2,0,0,1,1.94,1.58l10.2,48.65a2,2,0,0,1-1.94,2.38H236.6A2,2,0,0,1,234.66,185.74Z"/><polygon class="cls-8" points="165.32 138.92 164.88 136.81 181.08 136.81 181.52 138.92 165.32 138.92"/><polygon class="cls-1" points="172.8 144.16 172.36 142.04 200.75 142.04 201.2 144.16 172.8 144.16"/><polygon class="cls-1" points="174.3 149.39 173.85 147.28 205.68 147.28 206.12 149.39 174.3 149.39"/><polygon class="cls-1" points="175.79 154.62 175.35 152.51 200.97 152.51 201.42 154.62 175.79 154.62"/><polygon class="cls-8" points="170.25 163.12 169.8 161.01 180.05 161.01 180.49 163.12 170.25 163.12"/><polygon class="cls-1" points="177.72 168.35 177.28 166.24 189.76 166.24 190.21 168.35 177.72 168.35"/><polygon class="cls-1" points="193.2 168.35 192.75 166.24 205.24 166.24 205.68 168.35 193.2 168.35"/><polygon class="cls-1" points="179.22 173.59 178.78 171.47 220.98 171.47 221.42 173.59 179.22 173.59"/><polygon class="cls-1" points="180.71 178.82 180.27 176.71 212.45 176.71 212.89 178.82 180.71 178.82"/><path class="cls-10" d="M278.52,192.47H172.16c-2.9,0-4.78,1.65-4.17,3.66H284.9C284.3,194.12,281.42,192.47,278.52,192.47Z"/><path class="cls-12" d="M137.21,117.89,127,69.24A2,2,0,0,1,129,66.85h82.6a2,2,0,0,1,1.94,1.58l10.2,48.65a2,2,0,0,1-1.94,2.39h-82.6A2,2,0,0,1,137.21,117.89Z"/><polygon class="cls-8" points="166.57 68.46 149.23 68.46 148.84 66.59 166.18 66.59 166.57 68.46"/><polygon class="cls-11" points="163.75 71.43 156.79 71.43 156.4 69.57 163.36 69.57 163.75 71.43"/><polygon class="cls-11" points="175.33 71.43 164.61 71.43 164.22 69.57 174.94 69.57 175.33 71.43"/><polygon class="cls-11" points="180 74.41 157.41 74.41 157.02 72.54 179.62 72.54 180 74.41"/><polygon class="cls-11" points="177.13 77.38 158.03 77.38 157.64 75.52 176.74 75.52 177.13 77.38"/><polygon class="cls-11" points="189.8 109 177.64 109 178.03 110.86 190.19 110.86 189.8 109"/><polygon class="cls-8" points="174.64 104.91 156.83 104.91 156.44 103.05 174.25 103.05 174.64 104.91"/><polygon class="cls-11" points="181.8 111.97 165.24 111.97 165.63 113.84 182.19 113.84 181.8 111.97"/><polygon class="cls-11" points="176.78 109 164.62 109 165.01 110.86 177.17 110.86 176.78 109"/><polygon class="cls-11" points="188.32 106.02 164 106.02 164.39 107.89 188.71 107.89 188.32 106.02"/><polygon class="cls-8" points="165.96 54.58 146.34 54.58 145.95 52.71 165.57 52.71 165.96 54.58"/><polygon class="cls-11" points="175.65 61.64 154.01 61.64 154.4 63.5 176.03 63.5 175.65 61.64"/><polygon class="cls-11" points="171.32 58.66 153.39 58.66 153.78 60.53 171.71 60.53 171.32 58.66"/><polygon class="cls-11" points="172.51 55.69 152.77 55.69 153.16 57.55 172.9 57.55 172.51 55.69"/><polygon class="cls-8" points="165.74 82.22 152.1 82.22 151.71 80.36 165.35 80.36 165.74 82.22"/><polygon class="cls-11" points="187.16 89.28 160.51 89.28 160.9 91.15 187.54 91.15 187.16 89.28"/><polygon class="cls-11" points="170.93 86.31 159.89 86.31 160.28 88.17 171.32 88.17 170.93 86.31"/><polygon class="cls-11" points="182.91 86.31 171.87 86.31 172.26 88.17 183.3 88.17 182.91 86.31"/><polygon class="cls-11" points="183.59 83.33 159.27 83.33 159.66 85.2 183.97 85.2 183.59 83.33"/><polygon class="cls-11" points="183.54 98.21 162.37 98.21 162.76 100.07 183.93 100.07 183.54 98.21"/><polygon class="cls-11" points="167.91 95.23 161.75 95.23 162.14 97.1 168.29 97.1 167.91 95.23"/><polygon class="cls-11" points="177.54 95.23 168.75 95.23 169.14 97.1 177.93 97.1 177.54 95.23"/><polygon class="cls-11" points="185.45 92.26 161.13 92.26 161.52 94.12 185.84 94.12 185.45 92.26"/><polygon class="cls-11" points="204.6 91.76 195.89 91.76 195.5 89.89 204.22 89.89 204.6 91.76"/><polygon class="cls-11" points="219.1 91.76 205.68 91.76 205.29 89.89 218.71 89.89 219.1 91.76"/><polygon class="cls-11" points="224.8 94.73 196.51 94.73 196.12 92.87 224.41 92.87 224.8 94.73"/><polygon class="cls-11" points="221.04 97.71 197.13 97.71 196.74 95.84 220.65 95.84 221.04 97.71"/><polygon class="cls-11" points="231.75 79.92 204.66 79.92 205.05 81.79 232.14 81.79 231.75 79.92"/><polygon class="cls-11" points="226.49 76.95 204.04 76.95 204.43 78.81 226.87 78.81 226.49 76.95"/><polygon class="cls-8" points="222.43 73.97 197.71 73.97 198.1 75.84 222.82 75.84 222.43 73.97"/><polygon class="cls-11" points="232.97 109.61 199.61 109.61 200 111.47 233.36 111.47 232.97 109.61"/><polygon class="cls-11" points="212.81 106.63 198.99 106.63 199.38 108.5 213.2 108.5 212.81 106.63"/><polygon class="cls-11" points="227.81 106.63 213.99 106.63 214.38 108.5 228.2 108.5 227.81 106.63"/><polygon class="cls-11" points="228.81 103.66 198.37 103.66 198.76 105.52 229.2 105.52 228.81 103.66"/><polygon class="cls-11" points="227.97 118.53 201.47 118.53 201.86 120.4 228.36 120.4 227.97 118.53"/><polygon class="cls-11" points="208.56 115.56 200.85 115.56 201.24 117.42 208.95 117.42 208.56 115.56"/><polygon class="cls-11" points="220.62 115.56 209.62 115.56 210.01 117.42 221.01 117.42 220.62 115.56"/><polygon class="cls-11" points="230.68 112.58 200.23 112.58 200.62 114.45 231.06 114.45 230.68 112.58"/><polygon class="cls-11" points="149.6 120.84 128.86 120.84 129.25 122.7 149.99 122.7 149.6 120.84"/><polygon class="cls-11" points="143.47 117.86 128.24 117.86 128.63 119.73 143.85 119.73 143.47 117.86"/><polygon class="cls-11" points="159.76 117.86 144.54 117.86 144.93 119.73 160.16 119.73 159.76 117.86"/><polygon class="cls-11" points="158.07 114.89 127.62 114.89 128.01 116.75 158.45 116.75 158.07 114.89"/><polygon class="cls-8" points="390.95 176.71 378.11 176.71 379.61 196.13 389.45 196.13 390.95 176.71"/><polygon class="cls-13" points="390.95 176.71 378.11 176.71 379.61 196.13 389.45 196.13 390.95 176.71"/><polygon class="cls-10" points="111.13 163.22 129.59 163.22 123.29 196.13 104.83 196.13 111.13 163.22"/><polygon class="cls-8" points="134.64 154.4 108.57 154.4 115.87 196.13 141.94 196.13 134.64 154.4"/><polygon class="cls-8" points="107.03 154.4 108.57 154.4 115.87 196.13 114.33 196.13 107.03 154.4"/><polygon class="cls-14" points="107.03 154.4 108.57 154.4 115.87 196.13 114.33 196.13 107.03 154.4"/><polygon class="cls-5" points="119.62 191.67 113.88 158.86 130.9 158.86 136.63 191.67 119.62 191.67"/><polygon class="cls-15" points="135.82 191.67 130.09 158.86 130.9 158.86 136.63 191.67 135.82 191.67"/><path class="cls-10" d="M263.77,101c.37.8.25,1.65-.28,1.89s-1.25-.21-1.62-1-.24-1.65.28-1.89S263.4,100.21,263.77,101Z"/><path class="cls-16" d="M264.09,102.62s.32,5.47-.66,8.63c2,.67,4.16-1,4.16-1Z"/><path class="cls-10" d="M263.87,94.44a.46.46,0,0,1-.3.11,4.12,4.12,0,0,0-3.29,1.8.52.52,0,0,1-.71.18.51.51,0,0,1-.19-.7,5.14,5.14,0,0,1,4.13-2.31.52.52,0,0,1,.55.49A.53.53,0,0,1,263.87,94.44Z"/><path class="cls-17" d="M293.22,99.8c3.09,10.71,6.54,19,10.75,23.75,0,0,.08,8.41-14.25,12.41-15.76,4.4-9.72-5.72-9.72-5.72,8-4.46,7.24-11.18,1.22-13.74Z"/><path class="cls-10" d="M307.31,121.5c-.28-3.92-.65-8.38-3.06-8.49-2.66-.12-18.06,6.76-21.35,11.61s3.14,9.6,3.14,9.6Z"/><path class="cls-17" d="M275.79,182.05l-13.3-.43.24,11.14s11.6-1.2,12.11-4.25Z"/><polygon class="cls-17" points="255.46 187.08 254.06 192.78 262.73 192.76 262.49 181.62 255.46 187.08"/><path class="cls-8" d="M329.17,135.76l-.28,2.85c-.09.92-.21,1.83-.33,2.74-.23,1.81-.52,3.62-.83,5.42-.6,3.61-1.38,7.19-2.28,10.81a108.62,108.62,0,0,1-3.32,10.87c-.69,1.83-1.41,3.66-2.27,5.52a45.73,45.73,0,0,1-3,5.65c-.27.47-.61,1-.94,1.44s-.65,1-1,1.46-.72,1-1.18,1.47l-.65.74c-.21.24-.43.48-.74.78a22.81,22.81,0,0,1-6.93,4.65,41,41,0,0,1-12.43,3.15c-1.95.23-3.88.32-5.77.36s-3.78,0-5.64-.09-3.7-.27-5.53-.48-3.61-.51-5.55-.9l.32-10.45a162.32,162.32,0,0,0,18.9-4.51,39.05,39.05,0,0,0,4.06-1.56,18,18,0,0,0,3.22-1.74,4.59,4.59,0,0,0,1.46-1.42l.29-.46a5.64,5.64,0,0,0,.37-.62,7.56,7.56,0,0,0,.39-.71c.13-.25.27-.49.4-.79a52,52,0,0,0,2.89-7.93c.82-2.94,1.59-6,2.21-9.17s1.22-6.37,1.77-9.6l.76-4.86.69-4.74Z"/><path class="cls-18" d="M329.17,135.76l-.28,2.85c-.09.92-.21,1.83-.33,2.74-.23,1.81-.52,3.62-.83,5.42-.6,3.61-1.38,7.19-2.28,10.81a108.62,108.62,0,0,1-3.32,10.87c-.69,1.83-1.41,3.66-2.27,5.52a45.73,45.73,0,0,1-3,5.65c-.27.47-.61,1-.94,1.44s-.65,1-1,1.46-.72,1-1.18,1.47l-.65.74c-.21.24-.43.48-.74.78a22.81,22.81,0,0,1-6.93,4.65,41,41,0,0,1-12.43,3.15c-1.95.23-3.88.32-5.77.36s-3.78,0-5.64-.09-3.7-.27-5.53-.48-3.61-.51-5.55-.9l.32-10.45a162.32,162.32,0,0,0,18.9-4.51,39.05,39.05,0,0,0,4.06-1.56,18,18,0,0,0,3.22-1.74,4.59,4.59,0,0,0,1.46-1.42l.29-.46a5.64,5.64,0,0,0,.37-.62,7.56,7.56,0,0,0,.39-.71c.13-.25.27-.49.4-.79a52,52,0,0,0,2.89-7.93c.82-2.94,1.59-6,2.21-9.17s1.22-6.37,1.77-9.6l.76-4.86.69-4.74Z"/><path class="cls-19" d="M270.12,149a326.78,326.78,0,0,1,8.33,65.15H337c.32-7.24-.9-48-6.79-77.46a20.39,20.39,0,0,0-24.4-16l-.28.06c-7.31,1.67-17.8,4.35-24,6.7l-.25.09A18.34,18.34,0,0,0,270.12,149Z"/><path class="cls-18" d="M273.93,167.75c.46,2.81.93,5.78,1.36,8.91,4.79-5,6.31-20.33,6.31-20.33Z"/><path class="cls-17" d="M225.29,182.77,212,181.53l-.44,11.14A12.48,12.48,0,0,0,224,189.16Z"/><polygon class="cls-17" points="205.68 184.82 201.42 192.47 211.6 192.67 212.04 181.53 205.68 184.82"/><path class="cls-19" d="M292.09,143.91c-.92,1.76-1.74,3.3-2.66,4.91s-1.8,3.16-2.75,4.71c-1.88,3.11-3.83,6.18-5.89,9.21a154.52,154.52,0,0,1-13.71,17.64,75.64,75.64,0,0,1-8.69,8.26c-.39.34-.85.66-1.28,1s-.81.63-1.45,1-1.18.74-1.76,1.05-1.18.61-1.77.88a32,32,0,0,1-6.88,2.09,43.44,43.44,0,0,1-12.52.28,57.07,57.07,0,0,1-5.8-1c-1-.22-1.89-.47-2.82-.76s-1.81-.59-2.88-1l1.65-10.32c6.28-.85,13.07-1.95,17.75-4.06a12.47,12.47,0,0,0,2.91-1.68,6.79,6.79,0,0,0,1-.83c.07-.09.38-.36.61-.58s.5-.43.75-.69a74,74,0,0,0,6-6.75,195.49,195.49,0,0,0,11.27-16.16c1.8-2.83,3.55-5.71,5.3-8.6l2.58-4.35,2.49-4.26Z"/><polygon class="cls-17" points="276.02 352.65 265.08 352.65 259.57 327.3 270.52 327.3 276.02 352.65"/><path class="cls-10" d="M264.47,350.3h12.3a1,1,0,0,1,.93.75l2.16,9.73a1.61,1.61,0,0,1-1.6,2c-4.29-.07-6.38-.33-11.79-.33-3.33,0-7.6.35-12.19.35s-5.2-4.54-3.32-5c8.44-1.84,9-4.39,11.73-6.81A2.65,2.65,0,0,1,264.47,350.3Z"/><g class="cls-20"><polygon points="270.53 327.31 259.57 327.31 262.63 341.34 273.37 340.37 270.53 327.31"/></g><path class="cls-17" d="M289.71,87c4,10.12,6.78,15.84,4.14,23.19-4,11.06-18.19,12.17-25.09,3.44-6.2-7.87-11.62-23.1-3.79-31.47A14.81,14.81,0,0,1,289.71,87Z"/><path class="cls-10" d="M270.49,102.11c-1.64,2.2-2.9,3.87-2.9,3.87s-3.37-8.37-2.08-12.21c-1.64-3.25-4.95,1.54-6.2-4.79s4.16-13.13,6.2-14.54a7.41,7.41,0,0,1,.28,2.27,28,28,0,0,1,19.6-6.2,6.8,6.8,0,0,0-1.1,2.95s11.87,2,14.57,8.72a13.21,13.21,0,0,0-3-1.06,14.5,14.5,0,0,1,2.4,10.73,110.12,110.12,0,0,0-1.34,16.53c.11,2.84-7.68,8.27-12.43,2.46S270.49,102.11,270.49,102.11Z"/><path class="cls-17" d="M275.44,99.93a11.09,11.09,0,0,1-.5,7.1c-1.27,2.94-3.88,2.27-5.17-.34-1.17-2.35-1.92-6.72.15-8.81S274.66,97.1,275.44,99.93Z"/><path class="cls-8" d="M296,214.15S245.16,232.58,243.67,257c-2.76,44.93,15.61,80.5,15.61,80.5l16.84-1.8s-3-14.46-5.23-55.17c-2.81-51.14,84,1.2,66.12-66.36Z"/><path class="cls-21" d="M296,214.15S245.16,232.58,243.67,257c-2.76,44.93,15.61,80.5,15.61,80.5l16.84-1.8s-3-14.46-5.23-55.17c-2.81-51.14,84,1.2,66.12-66.36Z"/><path class="cls-8" d="M254.62,331.28c-.08,0,2.68,7.47,2.68,7.47l21-2.05-1.05-6.8Z"/><polygon class="cls-17" points="228.73 353.89 217.78 353.89 214.58 328.54 225.53 328.54 228.73 353.89"/><path class="cls-10" d="M217.7,350.3l12,0a.94.94,0,0,1,.93.75l2.18,9.73a1.59,1.59,0,0,1-1.57,1.95c-4.31-.07-10.55-.31-16-.31-6.34,0-7.55.36-15,.37-4.5,0-5.75-4.54-3.87-4.95,8.56-1.88,11.3-2.09,18.69-6.66A5,5,0,0,1,217.7,350.3Z"/><polygon class="cls-18" points="214.59 328.55 216.33 342.36 227.19 341.62 225.54 328.55 214.59 328.55"/><path class="cls-8" d="M278.45,214.15s-83.3,7.39-82.4,49.23c.93,43.52,17.19,72.87,17.19,72.87H229.5s-3.08-22.58-2.53-65.42c.16-12.84,26.1-17.08,51.42-18.57,21.88-1.3,42.36-13.77,50.86-34l1.74-4.14Z"/><path class="cls-21" d="M278.45,214.15s-83.3,7.39-82.4,49.23c.93,43.52,17.19,72.87,17.19,72.87H229.5s-3.08-22.58-2.53-65.42c.16-12.84,26.1-17.08,51.42-18.57,21.88-1.3,42.36-13.77,50.86-34l1.74-4.14Z"/><path class="cls-8" d="M209.43,331.87c-.07,0,2.79,7.52,2.79,7.52l19.64-1.4-1.15-6.81Z"/><path class="cls-10" d="M300.32,167.13l-10.57,40.73a127.08,127.08,0,0,0-4.06,31.94v18.94c0,4.78,3.52,8.65,7.87,8.65h54.18c4.35,0,7.87-3.87,7.87-8.65V239.8a127.09,127.09,0,0,1,4.07-31.94l9.33-36c1.44-5.53-2.34-11-7.57-11H307.88A8,8,0,0,0,300.32,167.13Z"/><path class="cls-10" d="M232.93,247.67l1.77,10.1c.94,5.32,5.61,9.62,10.44,9.62h60.23c4.83,0,8-4.3,7.06-9.62l-1.77-10.1c-1.07-6-6.38-10.94-11.88-10.94H241C235.46,236.73,231.87,241.63,232.93,247.67Z"/><polygon class="cls-8" points="311.17 277.54 279.62 277.54 276.54 267.39 314.25 267.39 311.17 277.54"/><rect class="cls-8" x="289.76" y="277.54" width="11.27" height="75.41"/><polygon class="cls-22" points="301.03 352.95 289.76 352.95 289.76 279.35 301.03 280.5 301.03 352.95"/><polygon class="cls-22" points="298.28 352.95 295.59 352.95 295.59 279.94 298.28 280.22 298.28 352.95"/><path class="cls-8" d="M321.31,364.6H269.47a1.43,1.43,0,0,1-.84-2.59l8.22-6a23,23,0,0,1,13.62-4.46h9.85A23,23,0,0,1,313.93,356l8.23,6A1.43,1.43,0,0,1,321.31,364.6Z"/></g></g></svg>